<?xml version="1.0" encoding="utf-8"?>
<!-- Generator: Adobe Illustrator 13.0.0, SVG Export Plug-In . SVG Version: 6.00 Build 14948)  -->
<!DOCTYPE svg PUBLIC "-//W3C//DTD SVG 1.0//EN" "http://www.w3.org/TR/2001/REC-SVG-20010904/DTD/svg10.dtd">
<svg version="1.0"
	 id="svg2605" xmlns:inkscape="http://www.inkscape.org/namespaces/inkscape" xmlns:sodipodi="http://sodipodi.sourceforge.net/DTD/sodipodi-0.dtd" xmlns:svg="http://www.w3.org/2000/svg" xmlns:rdf="http://www.w3.org/1999/02/22-rdf-syntax-ns#" xmlns:cc="http://creativecommons.org/ns#" xmlns:dc="http://purl.org/dc/elements/1.1/" inkscape:output_extension="org.inkscape.output.svg.inkscape" sodipodi:docname="heavy rain and lightening.svg" inkscape:version="0.45+devel" sodipodi:version="0.32"
	 xmlns="http://www.w3.org/2000/svg" xmlns:xlink="http://www.w3.org/1999/xlink" x="0px" y="0px" width="125.822px"
	 height="95.332px" viewBox="0 0 125.822 95.332" enable-background="new 0 0 125.822 95.332" xml:space="preserve">
<sodipodi:namedview  id="base" inkscape:zoom="4.3553529" pagecolor="#ffffff" bordercolor="#666666" inkscape:cx="62.911091" inkscape:cy="47.666153" borderopacity="1.0" gridtolerance="10000" guidetolerance="10" objecttolerance="10" showgrid="false" inkscape:pageshadow="2" inkscape:pageopacity="0.0" inkscape:current-layer="layer1" inkscape:window-width="640" inkscape:window-height="649" inkscape:window-x="20" inkscape:window-y="20" inkscape:document-units="px">
	</sodipodi:namedview>
<g id="g13563" transform="translate(-366.46662,-56.432845)">
	<path id="path11037" sodipodi:nodetypes="cszsssssscssssscsc" display="none" fill="#FFFFFF" d="M480.042,91.219
		c-1.296,0.014,0.514-0.478-2.789-0.408c-1.495,0.032-3.754,0.635-5.652,1.267c-1.947,0.647-5.302,1.928-7.546,2.495
		c-4.598,1.16-2.067,0.609-8.933,1.694c-7.115,1.125-8.719,1.271-10.303,1.198c-1.517-0.068-5.268,0.395-8.793-0.077
		c-3.16-0.424-4.371-0.106-5.102,0.398s-1.159,1.42-1.117,2.387s0.547,1.83,1.318,2.252c0.719,0.435,1.814,1.108,3.639,1.721
		c4.646,1.56,11.484,2.633,19.071,2.633s14.425-1.073,19.071-2.633c1.941-0.652,3.166-1.375,3.924-1.854
		c0.648-0.405,1.09-1.133,1.189-1.962c0.213-1.833,1.323-3.346,2.877-3.924c1.18-0.359,1.916-1.684,1.691-3.04
		C482.365,92.009,481.263,91.138,480.042,91.219z"/>
	<g id="g11039" transform="matrix(0.916143,0,0,0.916143,324.664,36.8816)">
		
			<path id="path11041" fill="#FFFFFF" stroke="#6798E9" stroke-width="6.7173" stroke-linecap="round" stroke-linejoin="round" stroke-miterlimit="1" d="
			M114.781,24.7c-9.765,0-18.128,5.089-22.231,12.4c-1.638-0.915-3.463-1.475-5.393-1.475c-5.833,0-10.686,4.692-12.186,11.062
			c-2.56-1.013-5.516-1.639-8.697-1.639c-9.541,0-17.288,5.227-17.288,11.664c0,5.809,6.345,10.588,14.591,11.472
			c-0.369,0.627-0.661,1.254-0.661,1.912c0,6.161,16.889,11.171,37.695,11.171c20.806,0,37.695-5.01,37.695-11.171
			c0-0.415-0.275-0.799-0.424-1.202c0.912,0.227,1.83,0.465,2.829,0.465c5.566,0,10.071-3.784,10.071-8.44
			s-4.505-8.412-10.071-8.412c-0.682,0-1.286,0.22-1.929,0.327c0.563-1.861,0.951-3.77,0.951-5.79
			C139.734,34.719,128.563,24.7,114.781,24.7z"/>
		
			<path id="path11043" fill="#6798E9" stroke="#6798E9" stroke-width="6.7173" stroke-linecap="round" stroke-linejoin="round" stroke-miterlimit="1" d="
			M144.658,26.486c-9.479,0-17.599,5.101-21.581,12.427c-1.59-0.917-3.362-1.478-5.235-1.478c-5.664,0-10.374,4.702-11.83,11.086
			c-2.486-1.015-5.355-1.643-8.443-1.643c-9.263,0-16.783,5.238-16.783,11.687c0,5.822,6.16,10.61,14.166,11.496
			c-0.359,0.629-0.642,1.257-0.642,1.916c0,6.175,16.396,11.196,36.594,11.196c20.198,0,36.593-5.021,36.593-11.196
			c0-0.415-0.264-0.801-0.41-1.203c0.886,0.227,1.777,0.465,2.746,0.465c5.404,0,9.778-3.792,9.778-8.457s-4.374-8.431-9.778-8.431
			c-0.661,0-1.247,0.221-1.873,0.328c0.547-1.865,0.924-3.778,0.924-5.802C168.883,36.527,158.037,26.486,144.658,26.486z"/>
		
			<path id="path11045" display="none" fill="#386195" stroke="#386195" stroke-width="6.7173" stroke-linecap="round" stroke-linejoin="round" stroke-miterlimit="1" d="
			M110.304,64.58c-4.988,0-9.26,2.541-11.356,6.191c-0.837-0.457-1.769-0.737-2.754-0.737c-2.979,0-5.458,2.342-6.225,5.523
			c-1.308-0.505-2.817-0.819-4.442-0.819c-4.874,0-8.831,2.609-8.831,5.822c0,2.9,3.242,5.286,7.454,5.727
			c-0.189,0.313-0.338,0.626-0.338,0.955c0,3.075,8.627,5.576,19.254,5.576s19.254-2.501,19.254-5.576c0-0.208-0.141-0.4-0.215-0.6
			c0.465,0.113,0.934,0.231,1.443,0.231c2.844,0,5.144-1.889,5.144-4.214c0-2.324-2.3-4.2-5.144-4.2
			c-0.348,0-0.657,0.11-0.985,0.164c0.288-0.93,0.486-1.882,0.486-2.891C123.05,69.582,117.343,64.58,110.304,64.58z"/>
	</g>
	
		<path id="path11047" sodipodi:nodetypes="cccccccccccccccc" fill="#F5FF12" stroke="#F5FF12" stroke-width="0.5" stroke-linecap="round" stroke-miterlimit="1" d="
		M433.727,74.952L413.686,87.66l19.794,4.366l-18.296,13.645l-7.387-2.305l5.239,13.151l20.822-5.737l-8.792-2.398l23.872-19.598
		l-21.821-3.552l21.072-13.242l-12.021-1.988l13.092-8.417l-4.809-0.12L424.136,73.01L433.727,74.952z"/>
	<g id="g11065" display="none">
		
			<path id="path11049" sodipodi:nodetypes="cccc" display="inline" fill="#6798E9" stroke="#6798E9" stroke-width="4" stroke-miterlimit="3.2" d="
			M396.051,139.877c-8.25,7.271,1.437,13.47,5.12,3.486l2.833-9.26L396.051,139.877z"/>
		
			<path id="path11051" sodipodi:nodetypes="cccc" display="inline" fill="#6798E9" stroke="#6798E9" stroke-width="4" stroke-miterlimit="3.2" d="
			M425.099,141.078c-8.25,7.271,1.437,13.47,5.12,3.486l2.833-9.26L425.099,141.078z"/>
		
			<path id="path11053" sodipodi:nodetypes="cccc" display="inline" fill="#6798E9" stroke="#6798E9" stroke-width="4" stroke-miterlimit="3.2" d="
			M418.336,125.735c-8.25,7.27,1.437,13.469,5.121,3.485l2.833-9.26L418.336,125.735z"/>
		
			<path id="path11057" sodipodi:nodetypes="cccc" display="inline" fill="#6798E9" stroke="#6798E9" stroke-width="4" stroke-miterlimit="3.2" d="
			M425.099,141.078c-8.25,7.271,1.437,13.47,5.12,3.486l2.833-9.26L425.099,141.078z"/>
		
			<path id="path11059" sodipodi:nodetypes="cccc" display="inline" fill="#6798E9" stroke="#6798E9" stroke-width="4" stroke-miterlimit="3.2" d="
			M418.336,125.735c-8.25,7.27,1.437,13.469,5.121,3.485l2.833-9.26L418.336,125.735z"/>
	</g>
</g>
</svg>
